<?xml version="1.0" encoding="utf-8"?>
<!-- Generator: Adobe Illustrator 28.2.0, SVG Export Plug-In . SVG Version: 6.00 Build 0)  -->
<svg version="1.1" id="Layer_1" xmlns="http://www.w3.org/2000/svg" xmlns:xlink="http://www.w3.org/1999/xlink" x="0px" y="0px"
	 viewBox="0 0 100 98.7" style="enable-background:new 0 0 100 98.7;" xml:space="preserve">
<style type="text/css">
	.st0{fill:#FFFFFF;}
</style>
<path class="st0" d="M26.5,77.5l0,5c0,0.1,0,2.6,1.7,4.4c1.1,1.1,2.5,1.6,4.3,1.6h35c1.8,0,3.3-0.5,4.3-1.6c1.7-1.8,1.7-4.3,1.7-4.4
	l0-5c0,0,0,0,0,0s0,0,0,0l0-55c0,0,0,0,0,0s0,0,0,0l0-5c-0.1-2.1-1.4-6-6-6h-35c-4.6,0-5.9,3.9-6,6l0,5c0,0,0,0,0,0s0,0,0,0
	L26.5,77.5C26.5,77.5,26.5,77.5,26.5,77.5C26.5,77.5,26.5,77.5,26.5,77.5z M71.5,82.5c0,0,0,1.8-1.1,3c-0.7,0.7-1.6,1-2.9,1h-35
	c-1.2,0-2.2-0.3-2.9-1c-1.1-1.1-1.1-2.9-1.1-3v-4h43V82.5z M71.5,76.5h-43l0-53h43V76.5z M28.5,17.5c0-0.4,0.2-4,4-4h35
	c3.8,0,4,3.6,4,4v4h-43V17.5z"/>
<path class="st0" d="M52.5,16.5h-5c-0.6,0-1,0.4-1,1s0.4,1,1,1h5c0.6,0,1-0.4,1-1S53.1,16.5,52.5,16.5z"/>
<path class="st0" d="M50,86c1.9,0,3.5-1.6,3.5-3.5S51.9,79,50,79s-3.5,1.6-3.5,3.5S48.1,86,50,86z M50,81c0.8,0,1.5,0.7,1.5,1.5
	S50.8,84,50,84s-1.5-0.7-1.5-1.5S49.2,81,50,81z"/>
<path class="st0" d="M32.5,68.5H50h17.5c0.6,0,1-0.4,1-1v-5c0-0.6-0.4-1-1-1h-4V46h4c0.4,0,0.8-0.3,1-0.7c0.1-0.4,0-0.9-0.4-1.1
	L50.6,31.7c0,0,0,0,0,0c-0.1,0-0.1-0.1-0.2-0.1c-0.1,0-0.1-0.1-0.2-0.1c-0.1,0-0.1,0-0.2,0c-0.1,0-0.1,0-0.2,0c-0.1,0-0.1,0-0.2,0.1
	c-0.1,0-0.1,0-0.2,0.1c0,0,0,0,0,0L31.9,44.2c-0.4,0.3-0.5,0.7-0.4,1.1c0.1,0.4,0.5,0.7,1,0.7h4v15.5h-4c-0.6,0-1,0.4-1,1v5
	C31.5,68.1,31.9,68.5,32.5,68.5z M33.5,63.5h4c0.6,0,1-0.4,1-1V45c0-0.6-0.4-1-1-1h-1.9L50,33.7L64.4,44h-1.9c-0.6,0-1,0.4-1,1v17.5
	c0,0.6,0.4,1,1,1h4v3H50H33.5V63.5z"/>
<path class="st0" d="M51,62.5v-1.6c2.1-0.3,5-1.9,5-5.9c0-2.9-2.5-4.4-5-5.6V49v-7.9c2.9,0.6,3,3.5,3,3.9c0,0.3,0.1,0.5,0.3,0.7
	c0.2,0.2,0.4,0.3,0.7,0.3c0,0,0,0,0,0c0.6,0,1-0.4,1-1c0-0.1,0-2.7-1.8-4.4c-0.8-0.8-1.9-1.3-3.2-1.5v-1.6c0-0.6-0.4-1-1-1
	s-1,0.4-1,1v1.6c-0.5,0.1-1.2,0.3-1.9,0.6C45.7,40.4,44,41.9,44,45c0,2.9,2.5,4.4,5,5.6V51v7.9c-2.9-0.6-3-3.5-3-3.9
	c0-0.3-0.1-0.5-0.3-0.7S45.3,54,45,54c-0.6,0-1,0.4-1,1c0,1.9,1.1,5.4,5,5.9v1.6c0,0.6,0.4,1,1,1S51,63.1,51,62.5z M51,51.6
	c1.8,1,3,1.9,3,3.4c0,2.7-1.8,3.6-3,3.9V51.6z M49,48.3c-1.8-1-3-1.9-3-3.4c0-2.7,1.8-3.6,3-3.9V48.3z"/>
</svg>
