<?xml version="1.0" encoding="utf-8"?>
<!-- Generator: Adobe Illustrator 28.2.0, SVG Export Plug-In . SVG Version: 6.00 Build 0)  -->
<svg version="1.1" id="Layer_1" xmlns="http://www.w3.org/2000/svg" xmlns:xlink="http://www.w3.org/1999/xlink" x="0px" y="0px"
	 viewBox="0 0 100 102.1" style="enable-background:new 0 0 100 102.1;" xml:space="preserve">
<style type="text/css">
	.st0{fill:#FFFFFF;}
</style>
<g>
	<path class="st0" d="M52.9,65.6c-1.7-0.6-2.3-0.9-2.3-1.9c0-1.1,0.9-1.9,2-1.9s2,0.9,2,1.9h2.1c0-1.8-1.2-3.3-2.9-3.8v-1h-2.1v0.9
		c-1.8,0.4-3.1,2-3.1,3.9c0,2.6,2.1,3.3,3.7,3.9c1.7,0.6,2.4,1,2.4,2.1c0,1.1-0.9,1.9-2,1.9c-1.1,0-2-0.9-2-1.9h-2.1
		c0,1.9,1.3,3.4,3,3.9v0.9h2.1v-0.9c1.7-0.5,3-2,3-3.9C56.6,67,54.5,66.2,52.9,65.6z"/>
	<path class="st0" d="M88.2,59.2c-0.9-4.7-4.3-8.6-8.7-10.2l4.7-6.8l-1-0.6c-0.1-0.1-8.9-5-15.9,4.6c-2-1-4.2-1.7-6.5-2.2
		c-1.7-0.3-3.5-0.5-5.3-0.5c-3.6,0-8.2,1.1-11.9,2.7v-6.7c0-6.6-5.3-11.9-11.9-11.9H20c-6.6,0-11.9,5.3-11.9,11.9l0,15.9
		c0,3.2,2.6,5.9,5.9,5.9h1v31.4h22V81c0.7,0.7,1.5,1.5,2.3,2.1l1,9.7h9.1l2.9-4.3c3.4,0.4,6.8,0.2,10.1-0.6l1.7,4.9H73l2.7-10.5
		c5.9-1,10.1-4.2,12-9.2h5.2V59.2H88.2z M34.8,90.7h-7.9V62.1h-2.1v28.7H17V38.5h-2.1v20.8h-1c-2.1,0-3.8-1.7-3.8-3.8l0-15.9
		c0-5.4,4.4-9.8,9.8-9.8h11.8c5.4,0,9.8,4.4,9.8,9.8v15.9c0,2.1-1.7,3.8-3.8,3.8h-0.9V38.5h-2.1L34.8,90.7L34.8,90.7z M90.8,71h-4.6
		L86,71.7c-1.6,4.8-5.3,7.7-11,8.6c-0.1,0-0.2,0-0.4,0.1L74,80.5l-2.6,10.2h-6.1l-1.9-5.3l-0.9,0.3c-3.5,1-7.1,1.3-10.8,0.7
		l-0.6-0.1l-3,4.4h-6.1L41.1,82l-0.3-0.3c-1.5-1.2-2.8-2.5-3.9-3.9V61.4h0.9c3.2,0,5.9-2.6,5.9-5.9v-6.9c3.6-1.8,8.3-2.9,11.9-2.9
		c1.6,0,3.3,0.2,4.9,0.5c2.4,0.5,4.6,1.3,6.7,2.4L68,49l0.5-0.8c4.8-7.1,10.4-6,12.6-5.2l-5,7.2l1.4,0.4c4.6,1.1,8.1,5.1,8.7,9.8
		l0.1,0.9h4.4L90.8,71L90.8,71z"/>
	<path class="st0" d="M47.3,51.3c3.1-1.3,6.4-2,9.8-2v-2.1c-3.7,0-7.3,0.7-10.6,2.2L47.3,51.3z"/>
	<path class="st0" d="M78.7,61.4c0.1,0.2,0.1,0.3,0.1,0.5c0,0.7-0.6,1.2-1.2,1.2c-0.7,0-1.2-0.6-1.2-1.2h-2.1c0,1.8,1.5,3.3,3.3,3.3
		c1.8,0,3.3-1.5,3.3-3.3c0-0.5-0.1-0.9-0.3-1.3L78.7,61.4z"/>
	<path class="st0" d="M25.9,27.1c5.3,0,9.6-4.3,9.6-9.6c0-5.3-4.3-9.6-9.6-9.6c-5.3,0-9.6,4.3-9.6,9.6
		C16.2,22.8,20.6,27.1,25.9,27.1z M25.9,9.9c4.2,0,7.6,3.4,7.6,7.6c0,4.2-3.4,7.6-7.6,7.6c-4.2,0-7.6-3.4-7.6-7.6
		C18.3,13.3,21.7,9.9,25.9,9.9z"/>
</g>
</svg>
