<?xml version="1.0" encoding="utf-8"?>
<!-- Generator: Adobe Illustrator 28.2.0, SVG Export Plug-In . SVG Version: 6.00 Build 0)  -->
<svg version="1.1" id="Layer_1" xmlns="http://www.w3.org/2000/svg" xmlns:xlink="http://www.w3.org/1999/xlink" x="0px" y="0px"
	 viewBox="0 0 110 101.2" style="enable-background:new 0 0 110 101.2;" xml:space="preserve">
<style type="text/css">
	.st0{fill:#FFFFFF;}
</style>
<path class="st0" d="M98.4,44.8c-0.1-0.4-0.1-0.8-0.2-1.2c-0.1-0.5-0.6-0.9-1.2-0.8c-0.5,0.1-0.9,0.6-0.8,1.1c0,0.3,0.1,0.7,0.1,1
	c-2.4,0.6-4.2,2.5-4.6,5h-7.7c-0.2-7-3-13.7-7.8-18.8l5.4-5.5c1.1,0.8,2.3,1.2,3.6,1.2c1.1,0,2.2-0.3,3.2-0.9
	c0.2,0.3,0.4,0.5,0.6,0.8c0.2,0.3,0.5,0.4,0.8,0.4c0.2,0,0.4-0.1,0.6-0.2c0.4-0.3,0.6-0.9,0.2-1.4c0,0,0,0,0,0
	c-0.2-0.3-0.5-0.6-0.7-0.9c2.2-2.6,1.8-6.5-0.8-8.7c-1.1-0.9-2.5-1.4-3.9-1.4l0,0c-1.5,0-2.9,0.5-4,1.4c-0.3-0.2-0.6-0.5-0.9-0.7
	c-0.5-0.3-1.1-0.2-1.4,0.2c-0.3,0.5-0.2,1.1,0.2,1.4c0.3,0.2,0.5,0.4,0.8,0.6c-1.3,2.1-1.2,4.8,0.2,6.8l-5.4,5.5
	C69.7,24.9,63,22.1,56,21.9v-7.7c2.5-0.4,4.4-2.2,5-4.6l1,0.1h0.2c0.6,0,1-0.4,1.1-0.9c0-0.6-0.4-1-0.9-1.1
	c-0.4-0.1-0.8-0.1-1.2-0.2c-0.3-3.4-3.4-5.9-6.7-5.5c-2.9,0.3-5.2,2.6-5.5,5.5c-0.4,0.1-0.8,0.1-1.2,0.2c-0.6,0-1,0.5-0.9,1.1
	c0,0.6,0.5,1,1.1,0.9H48l1-0.1c0.6,2.4,2.5,4.2,5,4.6v7.7c-7,0.2-13.7,3-18.8,7.8l-5.4-5.5c1.4-2,1.6-4.7,0.3-6.8
	c0.3-0.2,0.5-0.4,0.8-0.6c0.4-0.3,0.6-0.9,0.2-1.4c0,0,0,0,0,0c-0.3-0.4-0.9-0.5-1.4-0.2c-0.3,0.2-0.6,0.5-0.9,0.7
	c-1.1-0.9-2.5-1.5-4-1.5l0,0c-3.4,0-6.2,2.8-6.1,6.2c0,1.4,0.5,2.8,1.4,3.9c-0.2,0.3-0.5,0.6-0.7,0.9c-0.3,0.4-0.2,1.1,0.2,1.4
	c0,0,0,0,0,0c0.2,0.1,0.4,0.2,0.6,0.2c0.3,0,0.6-0.2,0.8-0.4l0.6-0.8c1,0.6,2.1,0.9,3.2,0.9c1.3,0,2.5-0.4,3.6-1.2l5.5,5.5
	C29,36.2,26.2,42.9,26,49.9h-7.7c-0.4-2.5-2.2-4.4-4.6-5c0.1-0.3,0.1-0.7,0.1-1c0.1-0.5-0.3-1.1-0.8-1.2c-0.5-0.1-1.1,0.3-1.1,0.8
	c-0.1,0.4-0.1,0.8-0.2,1.2c-3.4,0.3-5.9,3.4-5.5,6.7c0.3,2.9,2.6,5.2,5.5,5.5c0.1,0.4,0.1,0.8,0.2,1.2c0.1,0.5,0.5,0.8,1,0.8H13
	c0.5-0.1,0.8-0.6,0.7-1.1c-0.1-0.3-0.1-0.7-0.1-1c2.4-0.6,4.2-2.5,4.6-5h7.7c0.2,7,3,13.7,7.8,18.8l-5.5,5.4c-2-1.5-4.7-1.6-6.8-0.3
	c-0.2-0.3-0.4-0.5-0.6-0.8c-0.3-0.5-0.9-0.6-1.4-0.2c-0.5,0.3-0.6,0.9-0.2,1.4c0.2,0.3,0.5,0.6,0.7,0.9c-2.2,2.6-1.8,6.5,0.8,8.7
	c1.1,0.9,2.5,1.4,3.9,1.4l0,0c1.4,0,2.8-0.5,3.9-1.4c0.3,0.2,0.6,0.5,0.9,0.7c0.2,0.1,0.4,0.2,0.6,0.2c0.3,0,0.6-0.2,0.8-0.4
	c0.3-0.4,0.2-1.1-0.2-1.4c0,0,0,0,0,0c-0.3-0.2-0.5-0.4-0.8-0.6c1.3-2.1,1.2-4.8-0.2-6.8l5.4-5.5C40.3,76.9,47,79.7,54,80v7.7
	c-2.5,0.4-4.4,2.2-5,4.6l-1-0.1c-0.6-0.1-1.1,0.3-1.2,0.8s0.3,1.1,0.8,1.2c0.4,0.1,0.8,0.1,1.2,0.2c0.3,3.4,3.4,5.9,6.7,5.5
	c2.9-0.3,5.2-2.6,5.5-5.5c0.4-0.1,0.8-0.1,1.2-0.2c0.6-0.1,0.9-0.6,0.8-1.2s-0.6-0.9-1.2-0.8l-1,0.1c-0.6-2.4-2.5-4.2-5-4.6V80
	c7-0.2,13.7-3,18.8-7.8l5.4,5.5c-1.4,2-1.5,4.7-0.2,6.8c-0.3,0.2-0.5,0.4-0.8,0.6c-0.5,0.3-0.6,0.9-0.2,1.4c0,0,0,0,0,0
	c0.2,0.3,0.5,0.4,0.8,0.4c0.2,0,0.4-0.1,0.6-0.2c0.3-0.2,0.6-0.5,0.9-0.7c1.1,0.9,2.5,1.5,4,1.4l0,0c3.4,0,6.2-2.8,6.2-6.2
	c0-1.5-0.5-2.9-1.4-4c0.2-0.3,0.5-0.6,0.7-0.9c0.3-0.4,0.2-1.1-0.2-1.4c0,0,0,0,0,0c-0.4-0.3-1.1-0.2-1.4,0.2c0,0,0,0,0,0
	c-0.2,0.3-0.4,0.5-0.6,0.8c-2.1-1.3-4.8-1.2-6.8,0.2l-5.5-5.4c4.8-5.1,7.6-11.8,7.8-18.8h7.7c0.4,2.5,2.2,4.4,4.6,5
	c0,0.3-0.1,0.7-0.1,1c-0.1,0.5,0.3,1.1,0.8,1.2c0,0,0,0,0,0h0.2c0.5,0,0.9-0.4,1-0.8c0.1-0.4,0.1-0.8,0.2-1.2
	c3.4-0.3,5.9-3.4,5.5-6.7C103.7,47.4,101.3,45.1,98.4,44.8L98.4,44.8z M85.3,16.4c2.3,0,4.2,1.8,4.2,4.1c0,1.1-0.4,2.2-1.2,3l0,0
	c0,0-0.1,0.1-0.2,0.2c-1.7,1.6-4.3,1.4-5.9-0.2c-1.5-1.6-1.5-4.1,0.1-5.7l0.1-0.1C83.1,16.9,84.2,16.4,85.3,16.4L85.3,16.4z
	 M50.8,8.3C50.8,8.3,50.8,8.3,50.8,8.3L50.8,8.3V8.1c0-2.3,1.9-4.2,4.2-4.2c2.3,0,4.2,1.9,4.2,4.2v0.1c0,0,0,0,0,0.1l0,0
	c0,0,0,0,0,0.1c-0.2,2.3-2.1,4-4.4,3.9C52.7,12,51,10.4,50.8,8.3L50.8,8.3z M21.9,23.7l-0.1-0.1c-1.6-1.6-1.6-4.3,0-5.9
	c0.8-0.8,1.8-1.2,2.9-1.2l0,0c1.1,0,2.2,0.4,2.9,1.2c0.1,0.1,0.1,0.1,0.2,0.2c1.5,1.6,1.4,4.1-0.2,5.7l0,0
	C26.1,25.1,23.5,25.2,21.9,23.7z M12.4,55.1h-0.2c-2.3,0-4.2-1.8-4.2-4.1c0-2.3,1.8-4.2,4.1-4.2h0.2c2.3,0.2,4,2.1,3.9,4.4
	C16.1,53.2,14.5,54.9,12.4,55.1L12.4,55.1z M21.8,84.1c-1.6-1.6-1.6-4.2,0-5.9c0,0,0,0,0,0c0.1-0.1,0.1-0.1,0.2-0.2
	c0.8-0.7,1.7-1,2.8-1c2.3,0,4.1,1.9,4.1,4.2c0,1-0.4,1.9-1,2.6l0,0l0,0c0,0-0.1,0.1-0.1,0.1c-0.8,0.8-1.8,1.2-2.9,1.2
	C23.6,85.3,22.6,84.9,21.8,84.1z M59.2,93.5L59.2,93.5L59.2,93.5v0.2c0,2.3-1.9,4.2-4.2,4.2c-2.3,0-4.2-1.9-4.2-4.2v-0.1
	c0,0,0,0,0-0.1l0,0l0,0l0,0c0.2-2.3,2.1-4,4.4-3.9C57.3,89.8,59,91.4,59.2,93.5L59.2,93.5z M85.3,77c1.1,0,2.1,0.4,2.8,1.1
	c0,0,0.1,0.1,0.1,0.1c1.6,1.6,1.6,4.2,0,5.9c0,0,0,0,0,0l0,0c-0.8,0.8-1.8,1.2-2.9,1.2l0,0c-1.1,0-2.2-0.4-3-1.2
	c-0.1-0.1-0.1-0.1-0.2-0.2c-1.5-1.7-1.4-4.3,0.4-5.9C83.2,77.4,84.2,77,85.3,77L85.3,77z M74.8,69.4c-10.2,10.9-27.3,11.5-38.2,1.3
	s-11.5-27.3-1.3-38.2s27.3-11.5,38.2-1.3c5.5,5.1,8.6,12.3,8.6,19.8C82.1,57.8,79.5,64.4,74.8,69.4z M97.8,55.1h-0.3
	c-2.3-0.2-4-2.1-3.9-4.4c0.1-2.1,1.8-3.7,3.9-3.9h0.2c2.3,0,4.2,1.9,4.2,4.2C102,53.2,100.1,55.1,97.8,55.1L97.8,55.1z M39.5,11
	c-0.2-0.5,0.1-1.1,0.6-1.3c1.2-0.4,2.5-0.8,3.8-1.2c0.5-0.1,1.1,0.2,1.2,0.8c0.1,0.5-0.2,1-0.7,1.1c-1.2,0.3-2.4,0.7-3.6,1.1
	c-0.1,0-0.2,0.1-0.3,0.1C40,11.6,39.6,11.4,39.5,11z M32.6,14.4c-0.3-0.5-0.1-1.1,0.3-1.4c1.1-0.7,2.3-1.3,3.5-1.8
	c0.5-0.2,1.1,0,1.3,0.5c0.2,0.5,0,1.1-0.5,1.3c-1.1,0.5-2.2,1.1-3.3,1.8c-0.1,0.1-0.3,0.1-0.5,0.1C33.1,14.9,32.8,14.7,32.6,14.4z
	 M15.1,35.4c0.5,0.2,0.8,0.8,0.6,1.3c-0.4,1.2-0.8,2.4-1.1,3.6c-0.1,0.4-0.5,0.8-1,0.7c-0.1,0-0.2,0-0.2,0c-0.5-0.1-0.8-0.7-0.7-1.2
	c0.3-1.3,0.7-2.5,1.2-3.8C13.9,35.5,14.4,35.2,15.1,35.4C15,35.4,15,35.4,15.1,35.4L15.1,35.4z M15.3,32.4c0.6-1.2,1.2-2.4,1.8-3.5
	c0.2-0.5,0.8-0.7,1.3-0.5s0.7,0.8,0.5,1.3c0,0.1-0.1,0.1-0.1,0.2c-0.6,1.1-1.2,2.2-1.8,3.3c-0.2,0.4-0.5,0.6-0.9,0.6
	c-0.1,0-0.3,0-0.4-0.1C15.3,33.4,15.1,32.9,15.3,32.4C15.3,32.3,15.3,32.3,15.3,32.4L15.3,32.4z M18.5,73.4
	c-0.2,0.1-0.3,0.1-0.5,0.1c-0.4,0-0.7-0.2-0.9-0.5c-0.7-1.1-1.3-2.3-1.8-3.5c-0.3-0.5-0.1-1.1,0.4-1.4c0.5-0.3,1.1-0.1,1.4,0.4
	c0,0,0,0.1,0.1,0.1c0.5,1.1,1.1,2.2,1.8,3.3C19.1,72.5,19,73.1,18.5,73.4L18.5,73.4z M15.1,66.5c-0.5,0.2-1.1-0.1-1.3-0.6
	c-0.4-1.2-0.8-2.5-1.2-3.8c-0.1-0.5,0.2-1.1,0.7-1.2c0.5-0.1,1.1,0.2,1.2,0.7c0.3,1.2,0.7,2.4,1.1,3.6
	C15.8,65.7,15.6,66.3,15.1,66.5L15.1,66.5z M37.8,90.1c-0.2,0.4-0.5,0.6-0.9,0.6c-0.1,0-0.3,0-0.4-0.1c-1.2-0.6-2.4-1.2-3.5-1.8
	c-0.5-0.3-0.7-0.9-0.4-1.3c0.3-0.5,0.9-0.7,1.3-0.4c0,0,0,0,0.1,0c1.1,0.6,2.2,1.2,3.3,1.8C37.8,89,38,89.6,37.8,90.1
	C37.8,90.1,37.8,90.1,37.8,90.1z M45.1,92.6c-0.1,0.5-0.5,0.8-1,0.8c-0.1,0-0.2,0-0.2,0c-1.3-0.3-2.5-0.7-3.8-1.2
	c-0.5-0.2-0.8-0.8-0.6-1.3c0.2-0.5,0.7-0.7,1.2-0.6c1.2,0.4,2.4,0.8,3.6,1.1C44.8,91.5,45.2,92.1,45.1,92.6z M70.5,90.8
	c0.2,0.5-0.1,1.1-0.6,1.3c-1.2,0.4-2.5,0.8-3.8,1.2c-0.1,0-0.2,0-0.2,0c-0.5,0-0.9-0.3-1-0.8c-0.1-0.5,0.2-1.1,0.7-1.2c0,0,0,0,0,0
	c1.2-0.3,2.4-0.7,3.6-1.1C69.7,90,70.3,90.3,70.5,90.8C70.5,90.8,70.5,90.8,70.5,90.8z M77.4,87.4c0.3,0.5,0.1,1.1-0.4,1.4
	c0,0,0,0,0,0c-1.1,0.7-2.3,1.3-3.5,1.8c-0.1,0.1-0.3,0.1-0.4,0.1c-0.6,0-1-0.5-1-1c0-0.4,0.2-0.7,0.6-0.9c1.1-0.5,2.2-1.1,3.3-1.8
	C76.5,86.8,77.2,86.9,77.4,87.4C77.4,87.4,77.4,87.4,77.4,87.4z M97.4,62.1c-0.3,1.3-0.7,2.5-1.2,3.8c-0.1,0.4-0.5,0.7-0.9,0.7
	c-0.1,0-0.2,0-0.3-0.1c-0.5-0.2-0.8-0.8-0.6-1.3c0.4-1.2,0.8-2.4,1.1-3.6c0.1-0.5,0.7-0.9,1.2-0.7C97.3,61,97.6,61.5,97.4,62.1z
	 M94.8,69.5c-0.6,1.2-1.2,2.4-1.8,3.5c-0.2,0.3-0.5,0.5-0.9,0.5c-0.2,0-0.3-0.1-0.5-0.1c-0.5-0.3-0.6-0.9-0.4-1.4c0,0,0,0,0,0
	c0.6-1.1,1.2-2.2,1.8-3.3c0.2-0.5,0.8-0.7,1.3-0.5C94.8,68.4,95,69,94.8,69.5z M94.8,32.3c0.2,0.5,0,1.1-0.5,1.3
	c-0.1,0.1-0.3,0.1-0.4,0.1c-0.4,0-0.7-0.2-0.9-0.6c-0.5-1.1-1.1-2.2-1.8-3.3c-0.3-0.5-0.2-1.1,0.3-1.4c0.5-0.3,1.1-0.2,1.4,0.3
	c0,0,0,0,0,0.1C93.5,30,94.2,31.1,94.8,32.3L94.8,32.3z M95,35.4c0.5-0.2,1.1,0.1,1.3,0.6c0.4,1.2,0.8,2.5,1.2,3.8
	c0.1,0.5-0.2,1.1-0.7,1.2h-0.2c-0.5,0-0.9-0.3-1-0.8c-0.3-1.2-0.7-2.4-1.1-3.6C94.2,36.1,94.4,35.6,95,35.4L95,35.4z M65.7,10.4
	c-0.5-0.1-0.9-0.7-0.7-1.2c0.1-0.5,0.7-0.9,1.2-0.7c1.3,0.3,2.5,0.7,3.8,1.2c0.5,0.2,0.8,0.8,0.6,1.3c-0.1,0.4-0.5,0.7-0.9,0.7
	c-0.1,0-0.2,0-0.3-0.1C68.1,11.1,66.9,10.8,65.7,10.4z M72.7,13c-0.5-0.2-0.7-0.8-0.5-1.3c0.2-0.5,0.8-0.7,1.3-0.5
	c1.2,0.6,2.4,1.2,3.5,1.8c0.5,0.3,0.6,0.9,0.3,1.4c-0.2,0.3-0.5,0.5-0.8,0.5c-0.2,0-0.4,0-0.5-0.1C75,14.1,73.9,13.5,72.7,13z
	 M69.8,44l2.9-4.1c0.3-0.4,0.2-0.9-0.1-1.3l-5.3-5.3C67,33,66.4,32.9,66,33.2l-4.2,2.9c-0.4-0.2-0.8-0.4-1.3-0.5l-0.9-5
	c-0.1-0.5-0.5-0.8-1-0.8h-7.4c-0.5,0-0.9,0.3-1,0.8l-0.9,5c-0.4,0.2-0.8,0.3-1.2,0.5L44,33.2c-0.4-0.3-0.9-0.2-1.3,0.1l-5.3,5.3
	c-0.4,0.3-0.5,0.9-0.2,1.3l2.9,4.2c-0.2,0.4-0.4,0.8-0.5,1.2l-5,0.9c-0.5,0.1-0.8,0.5-0.8,1v7.5c0,0.5,0.3,0.9,0.8,1l5,0.9
	c0.2,0.4,0.3,0.8,0.5,1.3l-2.9,4.1c-0.3,0.4-0.2,0.9,0.1,1.3l5.3,5.3c0.3,0.3,0.9,0.4,1.3,0.1l4.2-2.9c0.4,0.2,0.8,0.4,1.2,0.5
	l0.8,4.4l0.1,0.6c0.1,0.5,0.5,0.8,1,0.8h7.5c0.5,0,0.9-0.3,1-0.8l0.9-5c0.4-0.2,0.8-0.3,1.2-0.5l4.1,2.9c0.4,0.3,0.9,0.2,1.3-0.1
	l5.3-5.3c0.4-0.3,0.4-0.9,0.2-1.3l-2.9-4.2c0.2-0.4,0.4-0.8,0.5-1.2l5-0.9c0.5-0.1,0.8-0.5,0.8-1v-7.5c0-0.5-0.3-0.9-0.8-1l-5-0.9
	C70.2,44.9,70,44.4,69.8,44L69.8,44z M74.2,53.8l-4.8,0.8c-0.4,0.1-0.7,0.3-0.8,0.7c-0.2,0.7-0.5,1.4-0.9,2.1
	c-0.2,0.3-0.1,0.7,0.1,1l2.8,4l-4.1,4.1l-4-2.8c-0.3-0.2-0.7-0.2-1-0.1c-0.7,0.3-1.3,0.6-2,0.8c-0.4,0.1-0.6,0.4-0.7,0.8L57.9,70
	h-5.8l-0.8-4.8c-0.1-0.4-0.3-0.7-0.7-0.8c-0.7-0.2-1.4-0.5-2-0.8c-0.3-0.2-0.7-0.1-1,0.1l-4,2.8l-4.1-4.1l2.8-4
	c0.2-0.3,0.2-0.7,0.1-1c-0.3-0.7-0.6-1.4-0.9-2.1c-0.1-0.4-0.4-0.6-0.8-0.7l-4.8-0.8V48l4.8-0.8c0.4-0.1,0.7-0.3,0.8-0.7
	c0.2-0.7,0.5-1.4,0.9-2.1c0.2-0.3,0.1-0.7-0.1-1l-2.8-4l4.1-4.1l4,2.8c0.3,0.2,0.7,0.2,1,0.1c0.6-0.3,1.2-0.6,1.9-0.8h0.1h0.2
	c0.3-0.1,0.5-0.4,0.6-0.8l0.8-4.8H58l0.8,4.8c0.1,0.4,0.3,0.7,0.7,0.8c0.7,0.2,1.4,0.5,2.1,0.8c0.3,0.2,0.7,0.1,1-0.1l3.9-2.8
	l4.1,4.1l-2.8,4c-0.2,0.3-0.2,0.7-0.1,1c0.4,0.7,0.6,1.3,0.9,2.1c0.1,0.4,0.4,0.6,0.8,0.7l4.8,0.8L74.2,53.8z M55,42
	c-4.9,0-8.9,4-8.9,8.8s4,8.9,8.8,8.9s8.9-4,8.9-8.8c0,0,0,0,0,0C63.9,46,59.9,42,55,42z M55,57.8c-3.8,0-6.9-3.1-6.9-6.8
	S51.2,44,55,44s6.9,3.1,6.9,6.8c0,0,0,0,0,0C61.8,54.7,58.8,57.7,55,57.8z"/>
</svg>
