<?xml version="1.0" encoding="utf-8"?>
<!-- Generator: Adobe Illustrator 28.2.0, SVG Export Plug-In . SVG Version: 6.00 Build 0)  -->
<svg version="1.1" id="Layer_1" xmlns="http://www.w3.org/2000/svg" xmlns:xlink="http://www.w3.org/1999/xlink" x="0px" y="0px"
	 viewBox="0 0 100 93.5" style="enable-background:new 0 0 100 93.5;" xml:space="preserve">
<style type="text/css">
	.st0{fill:#FFFFFF;}
</style>
<g>
	<path class="st0" d="M31.7,52.7h-3.1c-0.6,0-1.1,0.5-1.1,1.1c0,0.6,0.5,1.1,1.1,1.1h3.1c0.6,0,1.1-0.5,1.1-1.1
		C32.8,53.2,32.3,52.7,31.7,52.7z"/>
	<path class="st0" d="M40,52.7h-3.1c-0.6,0-1.1,0.5-1.1,1.1c0,0.6,0.5,1.1,1.1,1.1H40c0.6,0,1.1-0.5,1.1-1.1
		C41.1,53.2,40.6,52.7,40,52.7z"/>
	<path class="st0" d="M48.3,52.7h-3.1c-0.6,0-1.1,0.5-1.1,1.1c0,0.6,0.5,1.1,1.1,1.1h3.1c0.6,0,1.1-0.5,1.1-1.1
		C49.4,53.2,48.9,52.7,48.3,52.7z"/>
	<path class="st0" d="M64.5,47.7c-0.9,0-1.7,0.2-2.5,0.5c-0.8-0.3-1.6-0.5-2.5-0.5c-3.3,0-6.1,2.7-6.1,6.1s2.7,6.1,6.1,6.1
		c0.9,0,1.7-0.2,2.5-0.5c0.8,0.3,1.6,0.5,2.5,0.5c3.3,0,6.1-2.7,6.1-6.1S67.8,47.7,64.5,47.7z M63.4,53.8c0,1.2-0.6,2.3-1.4,3
		c-0.9-0.7-1.4-1.8-1.4-3c0-1.2,0.6-2.3,1.4-3C62.8,51.5,63.4,52.6,63.4,53.8z M55.5,53.8c0-2.2,1.8-3.9,3.9-3.9c0.1,0,0.2,0,0.4,0
		c-0.9,1.1-1.4,2.4-1.4,3.9c0,1.5,0.5,2.8,1.4,3.9c-0.1,0-0.2,0-0.4,0C57.3,57.7,55.5,56,55.5,53.8z M64.5,57.7c-0.1,0-0.2,0-0.4,0
		c0.9-1.1,1.4-2.4,1.4-3.9c0-1.5-0.5-2.8-1.4-3.9c0.1,0,0.2,0,0.4,0c2.2,0,3.9,1.8,3.9,3.9C68.4,56,66.6,57.7,64.5,57.7z"/>
	<g>
		<path class="st0" d="M26.8,65.9h44.3c3.3,0,6-2.7,6-6V34.3c0-3.3-2.7-6-6-6H26.8c-3.3,0-6,2.7-6,6v25.5
			C20.8,63.1,23.5,65.9,26.8,65.9z M75,41.5H22.9v-4.6H75L75,41.5L75,41.5z M71.1,63.7H26.8c-2.2,0-3.9-1.8-3.9-3.9V43.7H75v16.2
			C75,62,73.3,63.7,71.1,63.7z M26.8,30.4h44.3c2.2,0,3.9,1.8,3.9,3.9v0.5H22.9v-0.5C22.9,32.2,24.7,30.4,26.8,30.4z"/>
		<path class="st0" d="M21.5,79.3h-6.3c-0.6,0-1.1,0.5-1.1,1.1s0.5,1.1,1.1,1.1h9c7,5.1,15.6,8.1,24.8,8.1c23.4,0,42.4-19,42.4-42.4
			c0-13.1-6-24.9-15.4-32.7h6.2c0.6,0,1.1-0.5,1.1-1.1c0-0.6-0.5-1.1-1.1-1.1h-9C66.4,7.5,58,4.7,49.1,4.7
			c-23.4,0-42.4,19-42.4,42.4C6.7,59.9,12.4,71.5,21.5,79.3z M49.1,6.8c8.5,0,16.4,2.6,22.9,7.1v8.6c0,0.6,0.5,1.1,1.1,1.1
			s1.1-0.5,1.1-1.1v-7c9.3,7.4,15.3,18.8,15.3,31.5c0,22.2-18.1,40.3-40.3,40.3c-8.8,0-16.9-2.8-23.5-7.6v-8.6
			c0-0.6-0.5-1.1-1.1-1.1s-1.1,0.5-1.1,1.1v7c-8.9-7.4-14.6-18.5-14.6-31C8.8,24.9,26.9,6.8,49.1,6.8z"/>
	</g>
</g>
</svg>
